<?xml version="1.0" standalone="no"?>
<!DOCTYPE svg PUBLIC "-//W3C//DTD SVG 20010904//EN"
 "http://www.w3.org/TR/2001/REC-SVG-20010904/DTD/svg10.dtd">
<svg version="1.0" xmlns="http://www.w3.org/2000/svg"
 width="805.000000pt" height="363.000000pt" viewBox="0 0 805.000000 363.000000"
 preserveAspectRatio="xMidYMid meet">

<g transform="translate(0.000000,363.000000) scale(0.100000,-0.100000)"
fill="#000000" stroke="none">
<path d="M1689 3619 c-725 -46 -1365 -546 -1593 -1241 -69 -210 -81 -294 -81
-563 0 -211 3 -253 23 -348 78 -372 253 -691 518 -947 159 -154 296 -249 489
-341 299 -143 559 -184 1125 -177 l255 3 0 375 0 375 -395 6 c-226 4 -415 11
-441 17 -313 74 -577 280 -718 559 -86 171 -106 261 -106 478 0 187 7 230 56
365 90 246 286 465 520 581 65 32 103 47 209 82 l65 21 3215 6 3215 5 0 375 0
375 -3115 1 c-1713 1 -3172 -3 -3241 -7z"/>
<path d="M2812 1253 l3 -1248 1210 0 1210 0 0 375 0 375 -837 3 -838 2 0 870
0 870 -375 0 -375 0 2 -1247z"/>
<path d="M5620 1250 l0 -1250 375 0 375 0 0 435 0 435 460 0 460 0 0 -435 0
-435 375 0 375 0 0 1250 0 1250 -375 0 -375 0 0 -435 0 -435 -460 0 -460 0 0
435 0 435 -375 0 -375 0 0 -1250z"/>
</g>
</svg>
